<?xml version="1.0" standalone="no"?>
<!DOCTYPE svg PUBLIC "-//W3C//DTD SVG 20010904//EN"
 "http://www.w3.org/TR/2001/REC-SVG-20010904/DTD/svg10.dtd">
<svg version="1.0" xmlns="http://www.w3.org/2000/svg"
 width="400.000000pt" height="400.000000pt" viewBox="0 0 400.000000 400.000000"
 preserveAspectRatio="xMidYMid meet">

<g transform="translate(0.000000,400.000000) scale(0.100000,-0.100000)"
fill="#000000" stroke="none">
<path d="M1701 3579 c-626 -56 -1034 -480 -1091 -1137 -34 -390 128 -748 517
-1139 48 -48 69 -63 91 -63 29 0 62 26 62 49 0 6 20 60 45 119 61 145 60 156
-19 226 -170 149 -246 301 -245 491 0 335 267 605 597 605 237 0 445 -131 548
-344 46 -95 57 -161 51 -286 -8 -166 -65 -294 -191 -435 -25 -27 -57 -75 -73
-105 -23 -47 -27 -68 -28 -140 0 -99 17 -152 80 -250 124 -194 427 -420 645
-481 25 -7 88 -13 140 -12 107 0 157 17 204 73 34 41 39 66 34 162 l-5 81 32
18 c36 22 55 56 55 100 0 16 12 47 26 69 15 22 26 53 26 68 -1 15 -3 45 -4 67
l-3 40 68 16 c80 20 114 40 128 77 15 38 6 81 -29 138 -106 177 -172 340 -172
426 0 18 12 87 26 153 23 106 27 143 27 310 0 162 -3 203 -21 278 -62 249
-175 427 -362 569 -80 62 -258 150 -366 182 -238 71 -529 98 -793 75z m424
-93 c532 -64 848 -273 983 -651 36 -103 47 -182 46 -360 -1 -155 -5 -198 -28
-305 -30 -145 -31 -175 -11 -267 14 -60 114 -275 174 -374 11 -17 17 -38 14
-45 -2 -7 -39 -20 -81 -29 -110 -24 -126 -44 -119 -144 5 -69 4 -77 -19 -104
-16 -19 -24 -41 -24 -67 0 -32 -5 -42 -32 -61 -57 -39 -59 -44 -52 -155 6 -94
5 -103 -14 -122 -39 -39 -125 -51 -224 -31 -171 35 -490 258 -600 421 -68 101
-82 138 -83 218 0 91 14 121 109 234 255 306 249 710 -14 974 -95 96 -187 147
-325 182 -233 58 -476 -11 -650 -185 -148 -148 -215 -324 -202 -533 12 -199
78 -330 248 -493 l59 -56 -32 -79 c-18 -43 -37 -82 -42 -86 -14 -9 -32 8 -143
137 -365 424 -449 778 -297 1259 109 345 385 604 736 692 172 43 415 54 623
30z"/>
<path d="M2784 2291 c-79 -28 -194 -92 -205 -113 -21 -39 -2 -54 139 -111 235
-95 221 -91 248 -79 24 11 24 13 24 142 0 126 -1 132 -25 155 -20 20 -34 25
-77 25 -29 -1 -76 -9 -104 -19z m116 -131 c0 -44 -4 -60 -14 -60 -24 0 -157
63 -149 71 15 15 108 48 136 48 27 1 27 0 27 -59z"/>
<path d="M1564 2540 c-114 -23 -232 -117 -287 -230 -30 -62 -32 -71 -32 -180
0 -110 1 -118 33 -182 44 -90 136 -176 223 -209 53 -20 81 -24 164 -23 92 0
106 3 168 33 131 63 217 179 237 319 19 136 -18 250 -116 352 -101 106 -242
149 -390 120z m246 -121 c113 -60 174 -161 175 -289 0 -92 -31 -166 -97 -232
-70 -71 -126 -93 -233 -93 -76 0 -98 4 -139 25 -58 30 -129 98 -155 149 -27
53 -41 137 -31 196 11 65 17 80 57 141 89 137 275 182 423 103z"/>
<path d="M1584 2261 c-51 -31 -74 -72 -74 -132 0 -115 114 -183 218 -130 49
25 74 70 74 131 0 29 -7 61 -18 80 -38 64 -137 89 -200 51z m110 -87 c23 -22
21 -81 -3 -94 -46 -24 -91 0 -91 47 0 53 59 82 94 47z"/>
<path d="M1620 1533 c-66 -13 -110 -73 -110 -153 0 -45 4 -55 38 -92 35 -37
45 -42 95 -46 98 -8 161 52 160 152 -1 93 -85 157 -183 139z m68 -99 c25 -17
31 -71 10 -92 -15 -15 -53 -16 -79 -2 -28 15 -26 74 3 94 12 9 27 16 33 16 6
0 21 -7 33 -16z"/>
<path d="M1630 1150 c-12 -7 -16 -40 -18 -168 -3 -137 -1 -162 13 -176 22 -22
52 -20 65 3 15 29 13 324 -2 339 -14 14 -37 15 -58 2z"/>
<path d="M1201 1131 c-7 -13 -11 -136 -11 -354 0 -313 1 -336 19 -358 16 -21
22 -22 45 -11 l26 12 -2 362 -3 363 -32 3 c-23 2 -34 -2 -42 -17z"/>
<path d="M1996 944 c-14 -13 -16 -51 -16 -259 0 -238 1 -245 22 -265 20 -19
34 -20 223 -20 183 0 203 2 218 18 35 38 11 140 -50 218 -16 19 -70 69 -122
111 -51 42 -125 107 -162 144 -72 72 -87 79 -113 53z m349 -398 c16 -30 18
-38 6 -45 -10 -7 -206 -8 -268 -2 -10 1 -13 36 -13 139 0 76 3 141 6 145 11
10 249 -199 269 -237z"/>
<path d="M1595 704 c-71 -37 -102 -94 -91 -166 9 -54 39 -94 89 -118 52 -26
83 -25 131 3 63 35 81 68 81 142 0 57 -4 67 -30 96 -54 57 -122 73 -180 43z
m90 -86 c55 -25 39 -110 -22 -116 -37 -4 -73 26 -73 58 0 21 41 70 59 70 6 0
22 -5 36 -12z"/>
</g>
</svg>
